<svg xmlns="http://www.w3.org/2000/svg" xmlns:xlink="http://www.w3.org/1999/xlink" hight="30" width="200" viewBox="0 0 1920 544" >
<path fill="#2563EB" opacity="1.000000" stroke="none" d=" M506.000000,273.141296   C518.664124,273.117767 530.830200,273.208527 542.991089,272.996948   C546.586792,272.934387 547.911438,273.820282 547.928955,277.694153   C548.203491,338.332062 506.015442,399.372498 437.923706,409.261230   C391.665466,415.979156 352.495026,400.590424 321.647614,365.411316   C299.707642,340.390472 290.137268,310.627838 290.349915,277.545197   C290.360626,275.880676 290.322327,274.215271 290.271515,272.551392   C290.261871,272.236786 290.084595,271.927307 289.861847,271.232330   C285.781403,270.821442 281.498291,270.625732 277.298920,269.926849   C258.203888,266.749023 242.478668,249.007416 241.283798,229.787537   C241.008301,225.355942 243.711334,225.925293 246.381195,225.924637   C277.874634,225.916916 309.368103,225.906525 340.861542,225.897079   C343.668945,225.896240 346.476349,225.896973 350.261200,225.896973   C348.274414,229.250778 346.580231,231.820984 345.167816,234.537674   C316.969116,288.777069 347.176758,360.540161 414.772339,365.913025   C445.539215,368.358551 479.714111,348.280945 492.467682,320.151642   C492.660889,319.725525 492.687073,319.223663 492.938873,318.095642   C490.890076,317.969788 488.999542,317.761871 487.107971,317.752106   C472.611145,317.677338 458.113678,317.561646 443.617584,317.652222   C440.253998,317.673218 438.966705,316.826569 439.033386,313.173370   C439.246277,301.513611 439.237152,289.842651 438.952789,278.184814   C438.855225,274.184418 440.068634,273.079163 444.015198,273.110352   C464.508911,273.272156 485.004852,273.158051 506.000000,273.141296  z"/>
<path fill="#414141" opacity="1.000000" stroke="none" d=" M724.000732,351.058655   C712.210571,333.263519 700.382996,315.919617 689.146729,298.200806   C685.748413,292.841858 682.011230,290.806427 675.402466,292.733887   C675.402466,316.788727 675.402466,341.163116 675.402466,365.863708   C660.668701,365.863708 646.612854,365.863708 632.246460,365.863708   C632.246460,302.037994 632.246460,238.469604 632.246460,174.657608   C633.470337,174.516449 634.592346,174.274185 635.714294,174.274246   C660.376282,174.275467 685.038757,174.220383 709.700073,174.358047   C724.198792,174.438980 737.763306,177.977432 749.628235,186.642670   C769.247131,200.970856 776.302185,220.706146 772.702759,244.116516   C769.304504,266.218475 756.127747,280.596863 734.943115,287.662048   C733.711731,288.072723 732.514282,288.585419 730.761536,289.257477   C748.700073,314.920044 766.395752,340.235291 784.607910,366.289276   C771.767700,366.289276 759.733398,365.431610 747.884399,366.545380   C737.332703,367.537201 730.386841,364.468109 726.388977,354.697540   C725.894653,353.489410 724.934570,352.471863 724.000732,351.058655  M701.408752,209.817017   C692.819519,209.817017 684.230225,209.817017 675.551758,209.817017   C675.551758,226.486160 675.551758,242.502808 675.551758,258.103485   C686.927307,258.103485 697.914368,258.654449 708.816528,257.928864   C717.512207,257.350098 724.046631,252.627884 727.069580,243.908768   C733.481323,225.415421 722.882019,210.755524 701.408752,209.817017  z"/>
<path fill="#414141" opacity="1.000000" stroke="none" d=" M1209.775635,184.252930   C1209.770996,181.123795 1209.754883,178.460800 1209.781372,175.798248   C1209.784546,175.500153 1210.029785,175.204498 1210.317139,174.563110   C1210.916504,174.494049 1211.701294,174.324890 1212.486084,174.324646   C1236.807129,174.316772 1261.128540,174.240540 1285.449097,174.362335   C1300.764526,174.439041 1315.326538,177.751450 1327.854858,186.939392   C1350.301758,203.401260 1357.178223,226.292358 1352.689087,252.738770   C1348.254150,278.865021 1331.506470,294.623566 1306.442871,300.732056   C1295.299316,303.447968 1283.354614,302.994080 1271.755737,303.676147   C1265.662720,304.034424 1259.531250,303.739410 1252.945801,303.739410   C1252.945801,324.702454 1252.945801,345.108704 1252.945801,365.818726   C1238.545654,365.818726 1224.628418,365.818726 1209.776733,365.818726   C1209.776733,305.483429 1209.776733,245.101318 1209.775635,184.252930  M1252.865601,238.500000   C1252.849609,246.985931 1252.746948,255.473541 1252.910278,263.956024   C1252.935059,265.248322 1254.213501,267.641785 1254.877686,267.629761   C1267.289551,267.405090 1279.941650,269.826599 1292.028442,265.514740   C1303.649292,261.369080 1309.581421,250.915909 1309.026855,236.809769   C1308.542847,224.497726 1301.521240,213.946579 1289.836792,211.901474   C1277.894287,209.811218 1265.537109,210.090515 1252.864624,209.301575   C1252.864624,219.588776 1252.864624,228.544388 1252.865601,238.500000  z"/>
<path fill="#2563EB" opacity="1.000000" stroke="none" d=" M428.691833,183.052948   C421.765961,182.739151 415.281555,182.240707 408.796753,182.235352   C350.168396,182.187012 291.539917,182.197433 232.911530,182.257263   C218.553391,182.271912 206.132034,177.846695 196.212891,167.159607   C189.775497,160.223831 185.794937,152.168243 184.942413,142.689713   C184.398895,136.646774 184.606461,136.446411 190.592331,136.444366   C239.066025,136.427734 287.539703,136.421829 336.013397,136.417206   C361.666107,136.414764 387.319275,136.321533 412.971375,136.448624   C446.556549,136.615021 476.392548,147.169128 501.937866,169.210983   C519.907532,184.716217 532.130798,204.073746 539.889832,226.373825   C540.100281,226.978821 540.129089,227.647049 540.317322,228.706711   C538.909241,228.885239 537.685364,229.174484 536.461426,229.175018   C523.135437,229.180664 509.808289,229.039505 496.484192,229.186325   C493.212738,229.222382 491.353943,228.080826 489.737732,225.301544   C476.101562,201.852005 455.700653,188.024139 428.691833,183.052948  z"/>
<path fill="#414141" opacity="1.000000" stroke="none" d=" M915.236084,261.790100   C923.508850,276.396729 925.639343,291.778412 924.339905,307.956177   C923.975525,312.493439 922.220764,313.238098 918.166626,313.216003   C890.677917,313.066101 863.187927,313.161743 835.698303,313.177551   C832.918213,313.179138 830.138184,313.177765 826.701782,313.177765   C828.847961,323.463135 834.675781,329.756134 843.230225,333.155396   C860.456665,340.000580 875.502869,335.807678 888.420105,322.709595   C897.587708,329.250885 906.638306,335.708710 916.343506,342.633606   C913.898926,345.292999 911.781982,347.756744 909.498962,350.055573   C877.121033,382.656281 809.493347,376.676300 789.190186,327.472198   C771.566833,284.762085 796.361389,233.865753 848.662476,230.002640   C857.194458,229.372437 866.086670,229.858536 874.456421,231.569839   C892.347412,235.227951 905.737000,245.773193 915.236084,261.790100  M827.759583,282.274323   C826.677307,286.068176 829.626953,284.955963 831.259827,284.962402   C847.385559,285.026123 863.511719,285.003693 879.637695,284.970123   C880.700989,284.967926 881.763550,284.675110 884.113831,284.326569   C881.547485,279.641571 879.911926,275.208160 877.086914,271.745026   C863.650940,255.274155 836.648315,260.763733 827.759583,282.274323  z"/>
<path fill="#414141" opacity="1.000000" stroke="none" d=" M995.958618,236.973145   C1015.464600,225.918076 1040.565186,227.241058 1056.535767,240.111069   C1067.455811,248.910980 1072.645630,260.909119 1073.710571,274.447083   C1074.675293,286.712952 1074.496460,299.078369 1074.581055,311.401550   C1074.704590,329.377197 1074.612671,347.354370 1074.612671,365.743896   C1060.811401,365.743896 1047.296143,365.743896 1033.272705,365.743896   C1033.272705,363.993805 1033.272705,362.371765 1033.272583,360.749695   C1033.270996,339.252991 1033.280640,317.756256 1033.255371,296.259552   C1033.251587,293.095642 1033.237549,289.918213 1032.961060,286.770508   C1031.879883,274.461212 1024.580078,266.611542 1013.520813,265.709625   C1000.655457,264.660400 990.331604,271.450500 987.383118,283.249695   C986.546753,286.596405 986.354187,290.172577 986.341125,293.645294   C986.257568,315.808197 986.306580,337.971588 986.311890,360.134827   C986.312317,361.943329 986.312012,363.751831 986.312012,365.873566   C972.302917,365.873566 958.712585,365.873566 944.647095,365.873566   C944.647095,321.490387 944.647095,277.255524 944.647095,232.658218   C957.857666,232.658218 971.079895,232.658218 984.757080,232.658218   C984.757080,236.696732 984.757080,240.464966 984.757080,245.067215   C988.840332,242.095139 992.239197,239.621185 995.958618,236.973145  z"/>
<path fill="#414141" opacity="1.000000" stroke="none" d=" M1582.333496,297.226501   C1590.445679,276.561920 1598.349487,256.228729 1606.442749,235.971222   C1607.033569,234.492249 1608.976929,232.558807 1610.325562,232.531738   C1623.286499,232.271683 1636.254761,232.376038 1649.861572,232.376038   C1648.607300,235.619003 1647.615723,238.374664 1646.487061,241.072891   C1626.509155,288.829620 1606.534302,336.587555 1586.510864,384.325165   C1580.838989,397.847504 1573.071289,409.638641 1559.211914,416.176117   C1546.822266,422.020355 1533.841064,422.068207 1520.257324,420.524841   C1520.257324,408.730804 1520.257324,397.339539 1520.257324,385.455811   C1522.863037,385.785889 1525.416260,386.171234 1527.982666,386.423462   C1537.808594,387.389130 1545.265137,383.690735 1549.848999,374.860168   C1551.993042,370.729614 1554.114746,366.503571 1555.464600,362.082092   C1556.087646,360.041779 1555.298096,357.224579 1554.363647,355.106110   C1540.788208,324.330200 1527.071411,293.616577 1513.406494,262.880096   C1509.027710,253.031128 1504.701294,243.158997 1499.939697,232.365265   C1505.327271,232.365265 1509.913086,232.371780 1514.498901,232.363403   C1518.998413,232.355179 1523.499512,232.248169 1527.996826,232.337555   C1532.948242,232.435944 1538.977417,231.057236 1542.532227,233.384399   C1545.882080,235.577316 1546.715576,241.717636 1548.497559,246.184692   C1557.255005,268.139008 1565.957764,290.115204 1574.698364,312.076324   C1574.856934,312.474731 1575.244385,312.782074 1575.898926,313.597534   C1578.082764,308.019958 1580.127319,302.798248 1582.333496,297.226501  z"/>
<path fill="#414141" opacity="1.000000" stroke="none" d=" M1369.689941,304.700684   C1377.350220,295.842590 1387.185059,291.181854 1397.937866,289.191101   C1410.493896,286.866516 1423.289795,285.824005 1435.992310,284.315826   C1438.774048,283.985535 1441.600952,284.037659 1444.332031,283.917023   C1445.726196,273.991730 1440.237915,265.679840 1430.615479,263.656128   C1415.708008,260.520905 1403.055786,265.120880 1392.375122,275.842041   C1384.911133,268.121674 1377.457031,260.411499 1369.544922,252.227600   C1369.994141,251.736649 1371.093018,250.364517 1372.362915,249.174774   C1381.296997,240.804550 1391.679077,235.043228 1403.620117,232.261292   C1416.586548,229.240494 1429.689087,228.820816 1442.805054,231.047455   C1467.626831,235.261276 1483.905151,252.618607 1484.820068,277.756927   C1485.782715,304.206268 1485.317749,330.707611 1485.471924,357.186249   C1485.488281,359.992584 1485.474243,362.799072 1485.474243,365.934418   C1472.360718,365.934418 1459.641235,365.934418 1446.398926,365.934418   C1446.398926,361.593994 1446.398926,357.511688 1446.398926,352.060150   C1444.172485,354.071136 1442.910767,355.218475 1441.640869,356.356598   C1425.751953,370.597168 1399.764282,373.567047 1381.410034,363.241547   C1360.597168,351.532867 1354.954590,324.033875 1369.689941,304.700684  M1405.456055,316.971313   C1398.111938,325.141113 1400.181274,335.190399 1409.889648,338.502411   C1429.666870,345.249390 1448.353027,329.195038 1444.242065,308.350372   C1437.243530,308.993347 1430.059570,309.062531 1423.147827,310.469055   C1417.263916,311.666473 1411.693359,314.403809 1405.456055,316.971313  z"/>
<path fill="#414141" opacity="1.000000" stroke="none" d=" M1158.384277,206.099396   C1158.381592,214.896240 1158.381592,223.208435 1158.381592,232.203354   C1168.920654,232.203354 1179.134399,232.203354 1189.651611,232.203354   C1189.651611,243.933731 1189.651611,254.978394 1189.651611,266.558411   C1179.358398,266.558411 1169.269043,266.558411 1158.536865,266.558411   C1158.536865,299.942230 1158.536865,332.801666 1158.536865,366.027252   C1148.436646,366.027252 1138.950317,366.505615 1129.542480,365.852814   C1123.639404,365.443176 1119.552124,361.318390 1118.116455,355.427673   C1117.298584,352.072357 1116.960938,348.525360 1116.942993,345.061920   C1116.817871,320.915649 1116.832886,296.768616 1116.803589,272.621826   C1116.801392,270.823059 1116.803223,269.024292 1116.803223,266.633057   C1107.434204,266.633057 1098.533691,266.633057 1089.307617,266.633057   C1089.307617,255.121811 1089.307617,244.213760 1089.307617,232.398804   C1096.550537,232.398804 1103.814941,232.136841 1111.048584,232.494110   C1115.609009,232.719360 1117.112427,231.381912 1116.927734,226.685623   C1116.556030,217.232071 1116.817139,207.753616 1116.817139,197.950546   C1130.747070,197.950546 1144.311768,197.950546 1158.387085,197.950546   C1158.387085,200.685165 1158.387085,203.149948 1158.384277,206.099396  z"/>
</svg>